PathFileType	4	(X/Y/Z)	7_coords_data.trc
DataRate	CameraRate	NumFrames	NumMarkers	Units	OrigDataRate	OrigDataStartFrame	OrigNumFrames
30.0	30.0	5	21	m	30.0	22	53
Frame#	Time	THUMB_TIP	THUMB_IP	THUMB_MCP	THUMB_CMC	INDEX_TIP	INDEX_DIP	INDEX_PIP	INDEX_MCP	MIDDLE_TIP	MIDDLE_DIP	MIDDLE_PIP	MIDDLE_MCP	RING_TIP	RING_DIP	RING_PIP	RING_MCP	PINKY_TIP	PINKY_DIP	PINKY_PIP	PINKY_MCP	WRIST
X1	Y1	Z1	X2	Y2	Z2	X3	Y3	Z3	X4	Y4	Z4	X5	Y5	Z5	X6	Y6	Z6	X7	Y7	Z7	X8	Y8	Z8	X9	Y9	Z9	X10	Y10	Z10	X11	Y11	Z11	X12	Y12	Z12	X13	Y13	Z13	X14	Y14	Z14	X15	Y15	Z15	X16	Y16	Z16	X17	Y17	Z17	X18	Y18	Z18	X19	Y19	Z19	X20	Y20	Z20	X21	Y21	Z21
21	0.7	-0.04704079818725586	-0.053581298828125	0.993302978515625	-0.033874599456787106	-0.031108600616455078	1.0007999877929687	-0.030686599731445312	-0.012240599632263184	1.021530029296875	-0.03056010055541992	0.020159500122070313	1.0391800537109375	-0.018934999465942383	0.01576679992675781	1.0084299926757812	-0.004098440170288086	0.021525299072265625	0.9961019897460938	-0.005458109855651856	0.02349239921569824	0.9725679931640625	-0.040840999603271484	0.012886300086975097	0.9817369995117188	-0.01975580024719238	0.030217599868774415	1.0150999755859376	-0.008238920211791992	0.03813629913330078	1.0066500244140626	-0.0046635899543762205	0.044984100341796875	0.9814619750976562	-0.0441328010559082	0.03748059844970703	0.9780089721679688	-0.02815299987792969	0.04315309906005859	1.0234199829101562	-0.014194000244140624	0.05320940017700195	1.0146900024414063	-0.009999360084533691	0.06372249984741211	0.9924420166015625	-0.04716329956054687	0.05814820098876953	0.9860750122070312	-0.031146400451660155	0.05667340087890625	1.0286199951171875	-0.018982799530029296	0.06613349914550781	1.0220599975585938	-0.018959800720214845	0.07597139739990234	1.0065900268554688	-0.048389400482177734	0.0737156982421875	0.9989420166015625	-0.05344200134277344	0.042511600494384766	1.0550799560546875
22	0.7333333333333333	-0.04676860046386719	-0.05457469940185547	0.9937269897460937	-0.03360910034179688	-0.03208689880371094	1.0012100219726563	-0.03051020050048828	-0.013182700157165527	1.0219199829101562	-0.03049810028076172	0.01923310089111328	1.0395400390625	-0.018547800064086913	0.014860099792480468	1.009010009765625	-0.003825649976730346	0.020555999755859374	0.9964450073242187	-0.005005660057067871	0.022550600051879883	0.97297900390625	-0.04045370101928711	0.011961700439453125	0.9820269775390625	-0.019464799880981445	0.02935260009765625	1.015510009765625	-0.008038009643554687	0.037265201568603516	1.0071500244140625	-0.00432958984375	0.0440900993347168	0.981885986328125	-0.04370920181274414	0.03650500106811523	0.9782150268554688	-0.02796619987487793	0.042243598937988285	1.023780029296875	-0.014089500427246094	0.052310699462890624	1.0150900268554688	-0.009693900108337402	0.0628031997680664	0.9932009887695312	-0.046860801696777345	0.057189701080322265	0.9863289794921875	-0.0313568000793457	0.055580299377441404	1.0290799560546875	-0.018958799362182616	0.06524870300292969	1.0224400024414062	-0.01881220054626465	0.07505899810791015	1.0069500122070312	-0.04823160171508789	0.07270970153808594	0.9991840209960937	-0.053365699768066405	0.04161270141601563	1.0553299560546876
23	0.7666666666666667	-0.046581798553466794	-0.05507170104980469	0.993948974609375	-0.033461700439453124	-0.03261100006103516	1.0014600219726562	-0.030358299255371094	-0.01362559986114502	1.0221099853515625	-0.030386499404907227	0.01876959991455078	1.039739990234375	-0.01883259963989258	0.014215299606323242	1.0090900268554688	-0.003649569988250732	0.02011199951171875	0.9967130126953125	-0.004845459938049316	0.022015199661254883	0.9732689819335938	-0.040321998596191407	0.011439399719238281	0.9822650146484375	-0.01931570053100586	0.028979999542236328	1.016280029296875	-0.007922269821166993	0.036758098602294925	1.0074299926757813	-0.004143249988555908	0.043603599548339846	0.982072998046875	-0.0436063003540039	0.03599409866333008	0.978427978515625	-0.027834299087524415	0.04178210067749023	1.0241600341796875	-0.013963800430297851	0.05179990005493164	1.0151599731445313	-0.009557869911193848	0.06234189987182617	0.9932429809570312	-0.04671580123901367	0.056720100402832034	0.9865449829101562	-0.030960599899291993	0.055137699127197265	1.02897998046875	-0.01875600051879883	0.06474120330810547	1.0226799926757812	-0.0184689998626709	0.07445200347900391	1.0073800048828125	-0.04803160095214844	0.07225240325927734	0.9993800048828125	-0.053207401275634766	0.04124689865112305	1.0554300537109376
24	0.8	-0.0461515007019043	-0.055279598236083985	0.994218994140625	-0.03312939834594727	-0.032755901336669925	1.0018200073242187	-0.03013409996032715	-0.01372439956665039	1.022489990234375	-0.03019569969177246	0.018722400665283204	1.040030029296875	-0.018662500381469726	0.014148699760437011	1.0092999877929687	-0.0034475500583648682	0.019933799743652343	0.9970850219726562	-0.0046735601425170895	0.021864799499511717	0.9734760131835938	-0.040140300750732424	0.011317099571228027	0.982489013671875	-0.019207700729370118	0.028986299514770508	1.0165599975585937	-0.007789790153503418	0.03662250137329102	1.0077100219726562	-0.0039128799438476565	0.04342990112304688	0.9825880126953125	-0.04340639877319336	0.03584389877319336	0.9786909790039062	-0.02771190071105957	0.041729698181152346	1.0243900146484375	-0.01371739959716797	0.05167369842529297	1.0154500122070313	-0.009353659629821777	0.062138198852539066	0.9935590209960937	-0.04655839920043945	0.05658150100708008	0.9867260131835938	-0.030976600646972656	0.05497719955444336	1.0290400390625	-0.01859239959716797	0.0646001968383789	1.0229199829101563	-0.018442399978637697	0.07439240264892578	1.0074199829101562	-0.04787070083618164	0.072135498046875	0.9995590209960937	-0.05310609817504883	0.0411890983581543	1.0556600341796876
25	0.8333333333333334	-0.04544390106201172	-0.05506230163574219	0.9943049926757812	-0.032620201110839846	-0.03247040176391602	1.001989990234375	-0.02982550048828125	-0.013484600067138672	1.0226500244140626	-0.03001919937133789	0.018969800949096678	1.040219970703125	-0.01794610023498535	0.01465719985961914	1.0096799926757813	-0.003169500112533569	0.020405099868774413	0.997135009765625	-0.004400420188903809	0.022299200057983398	0.9738209838867188	-0.03979000091552734	0.011660599708557129	0.9827639770507812	-0.01902079963684082	0.02928619956970215	1.0169600219726562	-0.007509749889373779	0.03704629898071289	1.0079600219726563	-0.0038308899402618407	0.04382339859008789	0.9827930297851563	-0.04320660018920899	0.03619509887695312	0.9790239868164062	-0.02762859916687012	0.04203440093994141	1.024739990234375	-0.013622200012207031	0.05204010009765625	1.0158499755859376	-0.00932900047302246	0.06262820053100586	0.9936580200195313	-0.046444698333740236	0.05688399887084961	0.9870570068359374	-0.03088089942932129	0.05529349899291992	1.0295899658203125	-0.018539100646972655	0.06497589874267579	1.0232000122070313	-0.018423599243164064	0.07466799926757813	1.0078800048828125	-0.04792549896240234	0.07240090179443359	0.9999149780273437	-0.05299789810180664	0.04136309814453125	1.055760009765625
